# xmcd
#
# Track frame offsets:
# 150
# 9695
# 23130
# 33807
# 48720
# 59780
# 71175
# 83485
# 94872
# 107297
#
# Disc length: 1542 seconds
#
#
# Revision: 0
# Processed by: cddbd v1.5.2PL0 Copyright (c) Steve Scherf et al.
# Submitted via: FreeRIP 2.40 
#
DISCID=7d06040a
DTITLE=Roosevelt Sykes - Sings the Blues
DYEAR=1962
DGENRE=Blues
TTITLE0=Slave for Your Love
TTITLE1=Gone with the Wind
TTITLE2=Wild Side
TTITLE3=Out on a Limb
TTITLE4=Honey Child
TTITLE5=Never Loved Like This Before
TTITLE6=Last Chance
TTITLE7=Casual Friend
TTITLE8=Your Will Is Mine
TTITLE9=Hupe Dupe Do
EXTD=
EXTT0=
EXTT1=
EXTT2=
EXTT3=
EXTT4=
EXTT5=
EXTT6=
EXTT7=
EXTT8=
EXTT9=
PLAYORDER=
